<?xml version="1.0" encoding="utf-8"?>
<!-- Svg Vector Icons : http://www.onlinewebfonts.com/icon -->
<!DOCTYPE svg PUBLIC "-//W3C//DTD SVG 1.1//EN" "http://www.w3.org/Graphics/SVG/1.1/DTD/svg11.dtd">
<svg version="1.1" xmlns="http://www.w3.org/2000/svg" xmlns:xlink="http://www.w3.org/1999/xlink" x="0px" y="0px" viewBox="0 0 1000 1000" enable-background="new 0 0 1000 1000" xml:space="preserve">
<metadata> Svg Vector Icons : http://www.onlinewebfonts.com/icon </metadata>
<g><path d="M805.6,354.3h-10.2v-48.9v-2C793.4,140.4,661,10,500,10S206.6,140.4,204.6,301.4v2v48.9h-10.2c-63.2,0-114.1,50.9-114.1,114.1v154.8v156.9h0.1c0,0.7-0.1,1.4-0.1,2c0,138.5,65.2,209.9,195.6,209.9h448.2c128.4,0,195.6-71.3,195.6-209.9V468.4C919.7,405.3,868.8,354.3,805.6,354.3z M843.3,777.9c0,101.4-37.1,142.4-128.7,142.4H285.4c-91.7,0-128.7-39-128.7-142.4V627.7V479.4c0-27.3,23.4-50.7,50.7-50.7h585.2c27.3,0,50.7,23.4,50.7,50.7L843.3,777.9L843.3,777.9z M718.6,352.3H281.4v-42.9c0-124.9,98.8-226.4,218.6-226.4c119.7,0,218.6,101.5,218.6,224.5V352.3z"/><path d="M496,814.8c22.4,0,44.8-18.3,44.8-44.8V664c20.4-14.3,34.6-38.7,34.6-65.2c0-44.8-34.6-77.4-75.4-77.4c-40.7,0-75.4,36.7-75.4,77.4c-2,26.5,10.2,53,28.5,65.2V770C451.2,796.4,471.6,814.8,496,814.8z"/></g>
</svg>